<?xml version="1.0" standalone="yes"?>
<svg xmlns="http://www.w3.org/2000/svg" width="75" height="75">
<defs>
  <mask id="hole">
    <rect width="100%" height="100%" fill="white"/>
    <path style="fill:black; stroke:none;" d="M17 31L17 44C21.586 44 27.6395 45.0175 31.956 43.2577C37.0723 41.172 38.1204 34.1579 32.8665 31.5139C27.933 29.031 22.1812 30.7775 17 31M17 54L17 75L36 75C35.6166 70.1424 36.5229 59.2176 32.4861 55.9383C28.6806 52.8468 21.5573 54 17 54z"/>
  </mask>
</defs>
<path style="fill:#71c208; stroke:none;" d="M31 0L32 7C40.6541 7.00095 48.3216 7.90779 54.9066 14.1852C57.7561 16.9015 61.4347 27.0871 65.9066 26.534C68.6995 26.1885 68.8836 23.1862 68.4483 20.9954C67.5633 16.5414 64.4526 12.504 61.3843 9.30016C52.7578 0.292732 42.6276 0 31 0z"/>
<path style="fill:#71c208; stroke:none;" d="M34 18C43.0303 18.4136 47.5535 22.5016 52 30L58 29C57.368 21.9835 53.5989 16.1398 47 13.2137C40.6003 10.376 34.2698 9.78247 34 18z"/>
<path style="fill:#9b9b9b; stroke:none;" mask="url(#hole)" d="M5 75L17 75L17 54C21.7086 54 28.7683 52.9775 32.4861 56.564C36.4323 60.371 35.3501 69.8574 36 75L50 75C47.4222 68.9164 48.0263 62.4181 46.7878 56C46.3433 53.6962 44.7823 51.3707 44.9028 49C45.0312 46.4726 46.9833 44.3032 47.8534 42C49.5792 37.4316 49.3319 31.3259 46.8603 27.0432C41.3598 17.512 26.1694 19.9965 17 20C13.3102 20.0014 7.64623 19.1526 5.74228 23.2284C3.74692 27.4999 5 34.3846 5 39L5 75z"/>
</svg>
